<?xml version="1.0" standalone="no"?>
<!DOCTYPE svg PUBLIC "-//W3C//DTD SVG 20010904//EN"
 "http://www.w3.org/TR/2001/REC-SVG-20010904/DTD/svg10.dtd">
<svg version="1.0" xmlns="http://www.w3.org/2000/svg"
 width="310.000000pt" height="310.000000pt" viewBox="0 0 310.000000 310.000000"
 preserveAspectRatio="xMidYMid meet">
<metadata>
Created by potrace 1.14, written by Peter Selinger 2001-2017
</metadata>
<g transform="translate(0.000000,310.000000) scale(0.100000,-0.100000)"
fill="#000000" stroke="none">
<path d="M314 3089 c-5 -9 -2 -10 9 -6 22 8 22 -2 0 -20 -17 -14 -17 -14 2 -9
20 6 20 6 1 -9 -11 -8 -14 -15 -8 -15 7 0 12 -5 12 -11 0 -5 -4 -8 -8 -5 -5 3
-9 -1 -9 -9 0 -18 9 -19 27 -2 8 6 4 -1 -10 -17 -19 -22 -21 -28 -7 -23 9 4
17 2 17 -3 0 -6 -8 -10 -17 -10 -17 -1 -17 -1 0 -14 20 -16 23 -28 4 -20 -10
3 -14 -3 -13 -20 1 -14 5 -28 9 -32 3 -4 4 3 2 15 -2 12 0 19 5 16 4 -3 7 -13
5 -23 -2 -9 -4 -21 -4 -25 -1 -5 -5 -6 -10 -3 -5 4 -8 -2 -7 -11 2 -9 8 -19
14 -21 7 -2 12 -8 12 -13 0 -4 -6 -6 -13 -3 -8 3 -14 -2 -14 -10 0 -8 4 -13 9
-10 4 3 8 1 8 -5 0 -5 -6 -12 -12 -14 -10 -4 -10 -6 0 -6 8 -1 10 -6 5 -13
-13 -21 -12 -36 3 -42 16 -6 10 -46 -8 -58 -10 -6 -10 -8 0 -8 8 0 10 -5 5
-12 -13 -21 -12 -36 3 -42 16 -6 10 -46 -8 -58 -10 -6 -10 -8 1 -8 10 0 11 -3
3 -13 -7 -8 -7 -18 -2 -27 14 -21 12 -32 -2 -25 -7 4 -6 1 2 -7 20 -18 27 -46
7 -30 -11 9 -14 8 -14 -3 0 -8 4 -15 9 -15 4 0 8 -7 8 -16 0 -9 -5 -13 -12 -9
-7 4 -6 1 2 -7 20 -18 27 -46 7 -30 -11 9 -14 8 -14 -3 0 -8 4 -15 9 -15 4 0
8 -7 8 -16 0 -9 -5 -13 -12 -9 -7 4 -6 1 2 -7 20 -18 27 -46 7 -30 -11 9 -14
8 -14 -3 0 -8 4 -15 9 -15 4 0 8 -7 8 -16 0 -9 -5 -13 -12 -9 -7 4 -6 1 2 -7
20 -18 27 -46 7 -30 -11 9 -14 8 -14 -3 0 -8 5 -15 10 -15 5 0 3 -8 -4 -17
-10 -11 -10 -14 -1 -9 6 4 12 2 12 -3 0 -6 -6 -11 -12 -11 -9 0 -8 -4 2 -10
13 -9 13 -11 0 -20 -13 -9 -13 -10 0 -10 13 0 13 -1 0 -10 -13 -8 -12 -10 3
-10 9 0 17 -4 17 -10 0 -5 -8 -7 -17 -3 -17 6 -17 5 -2 -13 19 -21 17 -53 -3
-65 -10 -7 -10 -9 2 -9 13 0 13 -1 0 -10 -13 -8 -12 -10 3 -10 9 0 17 -4 17
-10 0 -5 -8 -7 -17 -3 -17 6 -17 5 -2 -13 19 -21 17 -53 -3 -65 -10 -7 -10 -9
2 -9 13 0 13 -1 0 -10 -13 -8 -12 -10 3 -10 9 0 17 -4 17 -10 0 -5 -8 -7 -17
-3 -17 6 -17 5 -2 -13 19 -21 17 -53 -3 -65 -10 -7 -10 -9 2 -9 13 0 13 -1 0
-10 -13 -8 -12 -10 3 -10 9 0 17 -4 17 -10 0 -5 -8 -7 -17 -3 -17 6 -17 5 -2
-13 19 -21 17 -53 -3 -65 -10 -7 -10 -9 2 -9 13 0 13 -1 0 -10 -13 -8 -12 -10
3 -10 9 0 17 -5 17 -11 0 -5 -4 -8 -9 -4 -5 3 -12 1 -15 -4 -3 -5 0 -11 8 -14
8 -3 13 -14 11 -24 -2 -10 -4 -22 -4 -26 -1 -5 -7 -5 -13 -2 -7 4 -6 1 2 -7
20 -18 27 -46 7 -30 -11 9 -14 8 -14 -3 0 -8 4 -15 9 -15 4 0 8 -7 8 -16 0 -9
-5 -13 -12 -9 -7 4 -6 1 2 -7 20 -18 27 -46 7 -30 -11 9 -14 8 -14 -3 0 -8 4
-15 9 -15 4 0 8 -7 8 -16 0 -9 -5 -13 -12 -9 -7 4 -6 1 2 -7 20 -18 27 -46 7
-30 -11 9 -14 8 -14 -3 0 -8 4 -15 9 -15 4 0 8 -7 8 -16 0 -9 -5 -13 -12 -9
-7 4 -6 1 2 -7 20 -18 27 -46 7 -30 -11 9 -14 8 -14 -3 0 -8 5 -15 10 -15 5 0
3 -8 -4 -17 -12 -15 -12 -16 4 -10 9 3 17 2 17 -3 0 -6 -8 -10 -17 -10 -17 -1
-17 -1 -1 -14 21 -16 24 -28 5 -20 -10 3 -14 -3 -13 -20 1 -14 5 -28 9 -32 3
-4 4 3 2 15 -2 12 0 19 5 16 4 -3 7 -13 5 -23 -2 -9 -4 -21 -4 -25 -1 -5 -5
-6 -10 -3 -5 4 -8 -2 -7 -11 2 -9 8 -19 14 -21 7 -2 12 -8 12 -13 0 -4 -6 -6
-13 -3 -10 3 -14 -3 -13 -20 1 -14 5 -28 9 -32 3 -4 4 3 2 15 -2 12 0 19 5 16
4 -3 7 -13 5 -23 -2 -9 -4 -21 -4 -25 -1 -5 -5 -6 -10 -3 -5 4 -8 -2 -7 -11 2
-9 8 -19 14 -21 7 -2 12 -8 12 -13 0 -4 -6 -6 -13 -3 -8 3 -14 -2 -14 -10 0
-8 4 -13 9 -10 4 3 8 1 8 -5 0 -5 -6 -12 -12 -14 -10 -4 -10 -6 0 -6 8 -1 10
-6 5 -13 -13 -21 -12 -36 3 -42 16 -6 10 -46 -8 -58 -10 -6 -10 -8 0 -8 8 0
10 -5 5 -12 -13 -21 -12 -36 3 -42 16 -6 10 -46 -8 -58 -10 -6 -10 -8 1 -8 10
0 11 -3 3 -13 -7 -8 -7 -18 -2 -27 14 -21 12 -32 -2 -25 -7 4 -6 1 2 -7 20
-18 27 -46 7 -30 -11 9 -14 8 -14 -3 0 -8 4 -15 9 -15 4 0 8 -7 8 -16 0 -9 -5
-13 -12 -9 -7 4 -6 1 2 -7 20 -18 27 -46 7 -30 -11 9 -14 8 -14 -3 0 -8 4 -15
9 -15 4 0 8 -7 8 -16 0 -9 -5 -13 -12 -9 -7 4 -6 1 2 -7 20 -18 27 -46 7 -30
-11 9 -14 8 -14 -3 0 -8 4 -15 9 -15 4 0 8 -7 8 -16 0 -9 -5 -13 -12 -9 -7 4
-6 1 2 -7 20 -18 27 -46 7 -30 -11 9 -14 8 -14 -3 0 -8 5 -15 10 -15 5 0 3 -8
-4 -17 -10 -11 -10 -14 -1 -9 6 4 12 2 12 -3 0 -6 -6 -11 -12 -11 -9 0 -8 -4
2 -11 12 -8 12 -12 2 -16 -10 -4 -9 -8 4 -17 13 -10 14 -15 4 -21 -9 -6 -11
-4 -5 6 5 8 4 10 0 6 -17 -15 -14 -39 3 -32 14 5 15 4 4 -6 -17 -18 -15 -29 6
-23 9 3 6 -2 -8 -10 -25 -15 -25 -15 -2 -16 12 0 22 -4 22 -9 0 -10 19 -9 37
2 6 4 15 2 19 -4 5 -8 3 -9 -6 -4 -9 6 -11 4 -5 -5 6 -10 11 -9 22 5 8 12 13
14 13 6 0 -11 3 -11 16 0 13 10 17 10 25 -2 5 -8 9 -12 10 -9 0 3 2 12 4 20
12 61 8 123 -8 114 -8 -6 -8 -3 2 9 10 13 11 24 3 46 -9 25 -8 29 4 24 10 -4
12 0 8 11 -3 9 -11 16 -17 16 -6 0 -2 7 9 15 10 8 15 15 10 15 -5 0 -3 6 3 13
8 10 7 14 -4 14 -8 0 -11 -5 -8 -10 3 -6 1 -7 -5 -3 -9 5 -8 13 3 30 13 19 13
25 0 43 -11 16 -12 24 -4 29 8 5 9 3 4 -7 -5 -8 -4 -11 1 -6 5 5 9 12 9 15 0
4 4 13 8 20 5 7 5 12 0 11 -19 -3 -23 2 -13 20 7 15 6 23 -6 35 -8 9 -12 16
-7 16 4 0 13 11 19 25 7 13 9 24 5 23 -18 -2 -21 4 -11 22 8 14 7 22 -4 32
-11 11 -11 14 1 23 11 8 12 17 3 39 -9 25 -8 28 7 22 15 -5 15 -4 -1 9 -12 9
-15 15 -7 15 8 0 11 6 7 16 -3 8 -2 12 4 9 6 -3 10 -1 10 4 0 6 -5 11 -11 11
-6 0 -9 6 -6 13 2 6 10 11 17 9 10 -2 10 1 -1 14 -8 10 -9 15 -3 11 7 -4 15 0
18 9 3 8 2 12 -4 9 -6 -3 -10 -1 -10 4 0 6 5 11 10 11 6 0 10 11 10 25 0 14 6
25 13 25 8 0 7 4 -3 10 -13 9 -7 14 12 11 4 0 4 7 1 16 -4 11 -3 14 5 9 8 -5
10 -2 6 8 -4 9 -1 16 6 16 9 0 9 4 -1 17 -10 11 -10 14 -1 9 7 -4 12 -2 12 4
0 6 4 9 9 5 6 -3 8 4 6 16 -3 16 0 19 12 15 13 -5 14 -4 4 8 -8 10 -9 16 -1
21 5 3 10 3 10 -2 0 -11 34 40 36 55 4 21 25 42 37 35 6 -3 7 -1 3 5 -7 12 6
44 17 43 23 -3 29 1 24 18 -2 10 1 18 7 17 6 0 12 4 14 9 2 6 14 16 28 23 16
9 23 19 20 28 -3 9 -2 12 5 9 6 -4 17 1 25 11 9 11 12 13 8 5 -5 -9 -3 -12 4
-7 7 4 12 14 12 23 0 13 3 13 15 3 13 -11 14 -10 9 4 -5 13 -2 15 12 9 17 -6
18 -5 4 12 -14 17 -14 18 7 6 20 -10 22 -9 16 6 -5 12 -2 15 10 10 12 -4 15
-1 12 15 -3 16 -2 19 6 11 8 -8 18 -5 34 13 16 18 25 21 28 12 4 -10 6 -10 6
0 1 6 6 12 12 12 5 0 7 -5 3 -12 -4 -7 -3 -8 5 -4 6 4 9 10 7 14 -2 4 2 13 10
19 10 10 15 10 21 -2 7 -12 11 -11 22 8 14 21 13 21 -5 7 -18 -14 -18 -14 -5
3 11 13 17 15 28 6 11 -10 12 -8 6 7 -6 17 -5 18 12 4 15 -12 17 -12 10 -1 -6
11 -4 13 9 8 9 -4 15 -3 12 2 -3 5 1 12 10 15 8 3 13 2 10 -2 -2 -4 4 -8 14
-8 15 0 16 3 8 14 -6 7 -7 12 -2 11 5 -2 19 1 32 5 14 5 28 3 37 -4 12 -10 16
-9 21 3 3 9 14 14 25 12 11 -2 17 -1 15 4 -3 4 4 13 16 20 11 7 17 8 14 2 -4
-5 -2 -12 4 -16 5 -3 10 -1 10 4 0 6 5 11 11 11 5 0 7 -4 4 -10 -10 -17 7 -11
20 7 9 13 14 13 20 3 6 -9 4 -11 -5 -5 -9 5 -11 4 -6 -4 6 -8 12 -9 20 -2 9 7
16 7 25 -2 11 -10 11 -7 1 13 -12 23 -12 24 3 11 10 -7 17 -10 17 -5 0 5 5 2
10 -6 5 -8 10 -10 10 -4 0 14 30 14 30 0 0 -6 5 -4 10 4 9 13 11 13 20 0 8
-12 10 -12 10 -1 0 10 3 11 13 2 8 -6 17 -8 21 -4 4 4 18 8 32 9 20 1 23 -3
18 -20 -6 -21 -6 -21 10 -1 8 11 16 16 16 11 0 -5 8 -2 17 5 14 12 16 12 8 0
-6 -11 -3 -13 14 -8 19 5 20 3 9 -11 -10 -12 -10 -14 0 -8 6 4 12 2 12 -4 0
-7 6 -8 19 0 25 13 34 13 26 0 -4 -7 2 -7 19 0 27 10 43 -1 30 -22 -4 -6 -3
-8 4 -4 5 3 13 0 15 -6 4 -10 6 -10 6 0 1 6 8 12 17 12 9 0 12 -5 8 -12 -5 -8
-2 -9 9 -5 23 9 49 -2 40 -17 -4 -6 2 -4 12 4 11 9 16 10 11 3 -4 -8 -1 -13 9
-13 10 0 13 -5 9 -12 -6 -10 -5 -10 7 -1 13 10 19 10 35 -3 10 -8 12 -13 4 -9
-8 4 -6 -1 4 -9 24 -19 40 -21 31 -3 -4 6 5 -1 20 -17 14 -15 37 -29 50 -30
15 0 20 -5 14 -10 -5 -6 -9 -15 -9 -20 0 -6 5 -4 10 4 9 13 13 12 29 -7 10
-12 22 -19 26 -15 5 4 5 -1 2 -10 -4 -13 -1 -16 14 -13 18 4 19 2 7 -12 -12
-15 -11 -15 9 -5 19 11 21 9 19 -13 -2 -13 0 -24 3 -23 15 1 51 -15 51 -24 0
-5 4 -6 10 -3 6 3 7 -1 4 -10 -5 -11 -2 -14 10 -9 18 7 19 -15 1 -29 -5 -4 2
-5 17 -3 15 3 27 2 27 -2 -3 -21 3 -32 19 -33 14 0 14 -2 -3 -9 -19 -8 -19 -9
4 -9 17 -1 21 -5 17 -17 -4 -10 -2 -13 6 -8 8 5 9 2 4 -11 -5 -15 -4 -16 9 -5
9 7 15 9 14 4 -4 -21 2 -35 11 -29 6 3 10 1 10 -4 0 -6 -4 -11 -10 -11 -5 0
-10 -4 -10 -9 0 -5 10 -7 23 -5 12 2 16 1 9 -2 -10 -5 -9 -10 5 -21 11 -9 12
-12 3 -8 -10 4 -9 2 2 -8 10 -8 14 -17 10 -21 -4 -4 7 -19 23 -32 17 -14 22
-22 13 -18 -10 3 -18 1 -18 -5 0 -6 7 -11 15 -11 11 0 12 -5 6 -23 -7 -17 -6
-24 4 -24 8 0 11 7 7 16 -3 9 -2 13 2 10 4 -4 9 -16 11 -28 3 -15 0 -19 -8
-15 -7 4 -5 -1 4 -12 22 -26 28 -57 16 -79 -5 -10 -5 -15 0 -12 5 3 15 2 23
-4 13 -7 12 -9 -2 -9 -20 0 -24 -16 -6 -22 6 -2 12 -18 13 -36 1 -17 -2 -29
-6 -26 -4 2 -11 0 -14 -6 -4 -6 -1 -9 5 -8 7 2 14 -7 16 -20 2 -13 0 -21 -5
-18 -11 7 -9 -13 2 -32 5 -6 5 -12 0 -12 -10 0 -10 -76 0 -86 11 -12 8 -26 -5
-18 -7 5 -8 3 -2 -7 12 -19 14 -69 3 -69 -5 0 -9 -5 -9 -11 0 -5 4 -8 9 -4 6
3 6 -6 1 -25 -5 -19 -5 -28 1 -25 14 10 11 -8 -8 -35 -16 -24 -16 -24 0 -11
20 16 22 8 6 -21 -8 -15 -8 -19 0 -14 6 4 11 3 11 -3 0 -5 -5 -13 -11 -17 -8
-4 -7 -9 2 -16 11 -8 11 -11 1 -15 -10 -4 -10 -8 -1 -19 9 -11 8 -14 -2 -14
-11 0 -11 -2 1 -10 9 -6 11 -13 5 -17 -5 -5 -10 -15 -10 -23 0 -8 5 -19 10
-23 7 -6 6 -10 -2 -13 -10 -4 -10 -10 0 -25 6 -10 15 -19 20 -19 4 0 5 5 1 12
-5 7 -3 8 7 2 24 -14 51 -16 43 -2 -6 10 -5 10 7 1 9 -7 20 -9 29 -3 9 5 19 5
27 -1 8 -8 16 -3 26 18 14 28 12 58 -3 48 -10 -6 -7 21 3 31 11 11 8 26 -3 19
-5 -3 -10 -1 -10 4 0 6 5 11 11 11 6 0 7 5 2 13 -13 20 -11 68 3 63 8 -3 11 1
7 10 -3 7 -10 14 -16 14 -6 0 -2 6 8 14 11 8 24 12 29 9 5 -4 6 -1 1 6 -5 9
-10 10 -18 2 -17 -17 -22 -13 -23 20 -1 21 2 29 12 25 8 -3 11 0 7 9 -3 8 -8
13 -12 11 -4 -3 -7 6 -7 20 0 16 5 23 12 20 8 -3 11 1 7 10 -3 7 -10 14 -16
14 -6 0 -2 6 8 14 11 8 24 12 29 9 5 -4 6 -1 1 6 -5 9 -10 10 -18 2 -17 -17
-22 -13 -23 20 -1 21 2 29 12 25 8 -3 11 0 7 9 -3 8 -10 12 -17 9 -6 -3 -2 2
8 10 19 15 12 22 -17 17 -5 -1 -6 3 -2 9 3 5 12 10 20 10 8 0 17 4 20 10 3 5
0 7 -8 4 -8 -3 -18 0 -23 7 -4 8 -3 10 4 5 7 -4 12 -2 12 3 0 6 -4 11 -10 11
-5 0 -10 5 -10 11 0 5 6 7 13 3 7 -5 6 0 -3 11 -14 17 -13 18 2 12 12 -4 15
-2 11 9 -3 7 -10 14 -16 14 -6 0 -2 6 8 14 11 8 24 12 29 9 5 -4 6 -1 1 6 -5
9 -10 10 -18 2 -17 -17 -22 -13 -23 20 -1 21 2 29 12 25 8 -3 11 0 7 9 -3 8
-10 12 -17 9 -6 -3 -3 1 7 9 10 8 13 17 7 19 -5 1 -12 13 -15 26 -2 13 0 20 6
17 5 -4 9 -2 9 4 0 5 -6 12 -12 14 -7 3 -4 6 7 6 16 1 17 3 5 10 -8 6 -18 7
-24 4 -5 -3 -6 -1 -2 5 4 7 13 12 21 12 8 0 17 4 20 10 3 5 0 7 -8 4 -8 -3
-18 0 -23 7 -4 8 -3 10 4 5 7 -4 12 -2 12 3 0 6 -4 11 -10 11 -5 0 -10 5 -10
11 0 5 6 7 13 3 7 -5 6 0 -3 11 -14 17 -13 18 2 12 12 -4 15 -2 11 9 -3 7 -10
14 -16 14 -6 0 -2 6 8 14 11 8 24 12 29 9 5 -4 6 -1 1 6 -5 9 -10 10 -18 2
-17 -17 -22 -13 -23 20 -1 21 2 29 12 25 8 -3 11 0 7 9 -3 8 -10 12 -17 9 -6
-3 -3 1 7 9 10 8 13 17 7 19 -5 1 -12 13 -15 26 -2 13 0 20 6 17 5 -4 9 -2 9
4 0 5 -6 12 -12 14 -7 3 -4 6 7 6 16 1 17 3 5 10 -8 6 -18 7 -24 4 -5 -3 -6
-1 -2 5 4 7 13 12 21 12 8 0 17 4 20 10 3 5 0 7 -8 4 -8 -3 -18 0 -23 7 -4 8
-3 10 4 5 7 -4 12 -2 12 3 0 6 -4 11 -10 11 -5 0 -10 5 -10 11 0 5 6 7 13 3 7
-5 6 0 -3 11 -14 17 -13 18 2 12 12 -4 15 -2 11 9 -3 7 -10 14 -16 14 -6 0 -2
6 8 14 11 8 24 12 29 9 5 -4 6 -1 1 6 -5 9 -10 10 -18 2 -17 -17 -22 -13 -23
20 -1 21 2 29 12 25 8 -3 11 0 7 9 -3 8 -10 12 -17 9 -6 -3 -3 1 7 9 10 8 13
17 7 19 -5 1 -12 13 -15 26 -2 13 0 20 6 17 5 -4 9 -2 9 4 0 5 -6 12 -12 14
-7 3 -4 6 7 6 16 1 17 3 5 10 -8 6 -18 7 -24 4 -5 -3 -6 -1 -2 5 4 7 13 12 21
12 8 0 17 4 20 10 3 5 0 7 -8 4 -8 -3 -18 0 -23 7 -4 8 -3 10 4 5 7 -4 12 -2
12 3 0 6 -4 11 -10 11 -5 0 -10 5 -10 11 0 5 6 7 13 3 7 -5 6 0 -3 11 -14 17
-13 18 2 12 12 -4 15 -2 11 9 -3 7 -10 14 -16 14 -6 0 -2 6 8 14 11 8 24 12
29 9 5 -4 6 -1 1 6 -5 9 -10 10 -18 2 -17 -17 -22 -13 -23 20 -1 21 2 29 12
25 8 -3 11 0 7 9 -3 8 -10 12 -17 9 -6 -3 -3 1 7 9 10 8 13 17 7 19 -5 1 -12
13 -15 26 -2 13 0 20 6 17 5 -4 9 -2 9 4 0 5 -6 12 -12 14 -7 3 -4 6 7 6 16 1
17 3 5 10 -8 6 -18 7 -24 4 -5 -3 -6 -1 -2 5 4 7 13 12 21 12 8 0 17 4 20 10
3 5 0 7 -8 4 -8 -3 -18 0 -23 7 -4 8 -3 10 4 5 7 -4 12 -2 12 3 0 6 -4 11 -10
11 -5 0 -10 5 -10 11 0 5 6 7 13 3 7 -5 6 0 -3 11 -14 17 -13 18 2 12 12 -4
15 -2 11 9 -3 7 -10 14 -16 14 -6 0 -2 6 8 14 11 8 24 12 29 9 5 -4 6 -1 1 6
-5 9 -10 10 -18 2 -17 -17 -22 -13 -23 20 -1 21 2 29 12 25 8 -3 11 0 7 9 -3
8 -10 12 -17 9 -6 -3 -3 1 7 9 10 8 13 17 7 19 -5 1 -12 13 -15 26 -2 13 0 20
6 17 5 -4 9 -2 9 4 0 5 -6 12 -12 14 -7 3 -4 6 7 6 16 1 17 3 5 10 -8 6 -18 7
-24 4 -5 -3 -6 -1 -2 5 4 7 13 12 21 12 8 0 17 4 20 10 3 5 0 7 -8 4 -8 -3
-18 0 -23 7 -4 8 -3 10 4 5 7 -4 12 -2 12 3 0 6 -4 11 -10 11 -5 0 -10 5 -10
11 0 5 6 7 13 3 7 -5 6 0 -3 11 -14 17 -13 18 2 12 12 -4 15 -2 11 9 -3 7 -10
14 -16 14 -6 0 -2 6 8 14 11 8 24 12 29 9 5 -4 6 -1 1 6 -5 9 -10 10 -18 2
-17 -17 -22 -13 -23 20 -1 21 2 29 12 25 8 -3 11 0 7 9 -3 8 -10 12 -17 9 -6
-3 -3 1 7 9 10 8 13 17 7 19 -5 1 -12 13 -15 26 -2 13 0 20 6 17 5 -4 9 -2 9
4 0 5 -6 12 -12 14 -7 3 -4 6 7 6 16 1 17 3 5 10 -8 6 -18 7 -24 4 -5 -3 -6
-1 -2 5 4 7 13 12 21 12 8 0 17 4 20 10 3 5 0 7 -8 4 -8 -3 -18 0 -23 7 -4 8
-3 10 4 5 7 -4 12 -2 12 3 0 6 -4 11 -10 11 -5 0 -10 5 -10 11 0 5 6 7 13 3 7
-5 6 0 -3 11 -14 17 -13 18 2 12 12 -4 15 -2 11 9 -3 7 -10 14 -16 14 -6 0 -2
6 8 14 11 8 24 12 29 9 5 -4 6 -1 1 6 -5 9 -10 10 -18 2 -17 -17 -22 -13 -23
20 -1 21 2 29 12 25 8 -3 11 0 7 9 -3 8 -10 12 -17 9 -6 -3 -3 1 7 9 10 8 13
17 7 19 -5 1 -12 13 -15 26 -2 13 0 20 6 17 5 -4 9 -2 9 4 0 5 -6 12 -12 14
-7 3 -4 6 7 6 16 1 17 3 5 10 -8 6 -18 7 -24 4 -5 -3 -6 -1 -2 5 4 7 13 12 21
12 8 0 17 4 20 10 3 5 0 7 -8 4 -8 -3 -18 0 -23 7 -4 8 -3 10 4 5 7 -4 12 -2
12 3 0 6 -4 11 -10 11 -5 0 -10 5 -10 11 0 5 6 7 13 3 7 -5 6 0 -3 11 -14 17
-13 18 2 12 12 -4 15 -2 11 9 -3 7 -10 14 -16 14 -6 0 -2 6 8 14 11 8 24 12
29 9 5 -4 6 -1 2 6 -6 9 -11 9 -22 0 -8 -6 -17 -9 -21 -5 -4 3 2 13 13 21 10
9 13 14 5 13 -7 -2 -15 5 -16 15 -3 15 -1 16 11 6 12 -10 13 -9 8 5 -3 9 -10
16 -15 16 -4 0 -6 20 -4 44 l5 44 -84 0 c-84 0 -92 -4 -73 -35 5 -7 4 -13 0
-13 -11 0 -10 -50 0 -67 5 -7 4 -13 0 -13 -11 0 -10 -50 0 -67 5 -7 4 -13 0
-13 -11 0 -10 -50 0 -67 5 -7 4 -13 0 -13 -11 0 -10 -50 0 -67 5 -7 4 -13 0
-13 -11 0 -10 -50 0 -67 5 -7 4 -13 0 -13 -11 0 -10 -50 0 -67 5 -7 4 -13 0
-13 -11 0 -10 -50 0 -67 5 -7 4 -13 0 -13 -11 0 -10 -50 0 -67 5 -7 4 -13 0
-13 -11 0 -10 -50 0 -67 5 -7 4 -13 0 -13 -11 0 -10 -50 0 -67 5 -7 4 -13 0
-13 -11 0 -10 -50 0 -67 5 -7 4 -13 0 -13 -11 0 -10 -50 0 -67 5 -7 4 -13 0
-13 -11 0 -10 -50 0 -67 5 -7 4 -13 0 -13 -11 0 -10 -50 0 -67 5 -7 4 -13 0
-13 -11 0 -10 -50 0 -67 5 -7 4 -13 0 -13 -11 0 -10 -50 0 -67 5 -7 4 -13 0
-13 -11 0 -10 -50 0 -67 5 -7 4 -13 0 -13 -11 0 -10 -50 0 -67 5 -7 4 -13 0
-13 -11 0 -10 -50 0 -67 5 -7 4 -13 0 -13 -11 0 -10 -50 0 -67 5 -7 4 -13 0
-13 -11 0 -10 -50 0 -67 5 -7 4 -13 0 -13 -11 0 -10 -50 0 -67 5 -7 4 -13 0
-13 -10 0 -10 -47 0 -57 10 -9 9 -25 -1 -19 -5 3 -9 -1 -9 -9 0 -8 4 -12 9 -9
13 8 10 -10 -4 -25 -11 -11 -10 -13 5 -8 9 4 17 2 17 -3 0 -6 -5 -10 -11 -10
-5 0 -8 -4 -5 -9 3 -5 -2 -15 -12 -22 -15 -13 -16 -12 -4 3 8 10 9 19 3 22 -5
3 -12 0 -14 -6 -3 -7 -6 -3 -6 10 -1 12 -6 22 -12 22 -7 0 -9 9 -6 21 5 17 3
18 -11 7 -13 -11 -15 -10 -9 10 4 19 2 22 -10 18 -13 -6 -14 -4 -3 9 7 9 9 15
4 14 -18 -3 -34 1 -33 8 3 19 -2 34 -9 29 -5 -3 -16 8 -26 25 -10 18 -22 27
-29 22 -8 -4 -7 -1 1 9 10 13 10 18 1 24 -8 4 -9 3 -5 -4 4 -7 4 -12 1 -12
-11 0 -35 28 -35 40 0 7 -7 9 -16 6 -8 -3 -13 -2 -9 3 3 5 -1 12 -7 14 -10 4
-9 8 2 16 12 9 10 11 -12 7 -19 -3 -32 3 -50 22 -22 26 -22 26 0 8 25 -22 30
-15 6 9 -13 12 -19 13 -31 4 -8 -7 -13 -8 -12 -3 4 22 -2 33 -16 28 -9 -4 -15
0 -15 10 0 9 -7 16 -16 16 -9 0 -12 5 -8 13 5 8 2 7 -9 -2 -15 -12 -17 -12
-12 2 4 8 1 18 -6 23 -8 5 -10 3 -5 -7 4 -8 -3 -3 -15 11 -15 17 -20 19 -16 8
4 -10 2 -18 -3 -18 -6 0 -10 7 -10 16 0 10 -6 14 -15 11 -8 -4 -17 -1 -21 5
-4 7 -3 8 4 4 25 -15 10 3 -15 20 -25 16 -26 16 -14 1 12 -15 12 -17 -3 -11
-9 3 -16 10 -16 16 0 5 -5 6 -10 3 -6 -3 -10 2 -11 12 0 16 -1 16 -9 -2 -8
-19 -9 -19 -9 -1 -1 13 -6 17 -20 13 -15 -4 -18 -1 -13 12 5 14 4 14 -11 2
-13 -10 -17 -10 -17 -1 0 8 -10 11 -30 8 -25 -4 -28 -2 -18 10 10 12 7 13 -20
9 -18 -3 -35 0 -38 5 -5 7 -2 8 6 3 9 -5 11 -4 6 4 -6 9 -11 9 -22 0 -11 -9
-14 -8 -14 7 0 16 -2 16 -9 4 -6 -8 -7 -18 -4 -24 3 -5 1 -6 -5 -2 -7 4 -12
14 -12 22 0 11 -4 12 -19 4 -14 -7 -23 -6 -33 3 -17 16 -58 19 -58 4 0 -9 -2
-9 -8 -1 -4 7 -18 11 -32 10 -14 -1 -33 2 -44 7 -13 6 -16 6 -12 -2 4 -6 2
-11 -3 -11 -6 0 -11 6 -11 13 0 7 -3 8 -8 2 -8 -11 -72 -14 -72 -3 0 4 -7 5
-15 2 -8 -4 -12 -11 -8 -17 4 -6 1 -7 -8 -1 -20 12 -38 14 -45 3 -7 -12 -24
-11 -24 2 0 5 5 7 12 3 7 -5 8 -3 3 6 -6 10 -11 9 -22 -5 -9 -14 -13 -15 -13
-4 0 12 -2 12 -10 -1 -7 -11 -10 -11 -10 -2 0 7 -4 11 -10 7 -5 -3 -7 -13 -4
-23 3 -9 -2 -6 -10 8 -10 17 -15 20 -16 9 0 -9 -6 -16 -12 -17 -39 -5 -55 -10
-77 -21 -15 -9 -21 -9 -16 -2 10 18 -42 5 -62 -14 -13 -13 -18 -14 -24 -3 -7
10 -9 9 -9 -4 0 -12 -6 -15 -22 -11 -19 4 -20 3 -8 -6 12 -9 10 -11 -11 -11
-14 0 -31 -6 -37 -12 -10 -10 -15 -10 -23 2 -9 12 -10 11 -6 -5 3 -15 -1 -21
-16 -22 -11 -1 -23 -7 -27 -14 -6 -8 -9 -8 -13 2 -3 8 -6 3 -6 -11 -1 -19 -3
-22 -11 -10 -8 12 -10 12 -16 -3 -5 -13 -10 -15 -19 -7 -10 8 -15 8 -21 -1 -4
-7 -3 -9 4 -5 6 4 10 -1 9 -13 -1 -15 -4 -17 -14 -10 -8 8 -17 5 -30 -10 -9
-12 -24 -21 -31 -21 -11 0 -12 -3 -3 -14 9 -11 6 -12 -16 -8 -24 5 -26 3 -15
-10 10 -13 8 -15 -13 -12 -23 2 -24 0 -13 -14 10 -12 10 -14 1 -8 -7 4 -13 2
-13 -3 0 -6 -7 -11 -16 -11 -11 0 -14 -5 -10 -16 6 -15 4 -15 -11 -3 -9 8 -14
9 -10 3 4 -7 0 -15 -9 -18 -8 -3 -12 -10 -9 -16 3 -5 -2 -10 -11 -10 -10 0
-14 -3 -11 -7 4 -3 -3 -11 -16 -17 -12 -6 -23 -22 -25 -35 -2 -14 -9 -21 -17
-17 -10 3 -12 0 -8 -11 4 -11 2 -14 -5 -9 -7 4 -10 -1 -7 -13 2 -14 -1 -18
-10 -15 -8 4 -15 -3 -17 -18 -2 -13 -9 -22 -15 -21 -7 2 -10 -4 -7 -12 8 -21
-6 -41 -17 -24 -6 10 -9 10 -9 2 0 -7 8 -17 18 -22 24 -14 9 -14 -23 1 -18 8
-22 14 -13 20 11 6 10 8 0 8 -7 0 -10 5 -7 10 4 6 10 8 14 6 4 -3 6 5 5 17 -1
12 -3 26 -3 30 -1 5 -7 5 -13 1 -10 -6 -10 -4 0 7 16 17 16 32 -1 24 -6 -4 -3
1 7 9 20 16 20 16 0 17 -15 0 -16 2 -4 7 18 8 18 45 1 66 -9 11 -9 16 0 22 8
5 10 3 4 -7 -5 -8 -4 -11 1 -6 5 5 9 12 9 15 0 4 4 13 8 20 5 7 5 12 0 11 -19
-3 -23 2 -13 20 7 15 6 23 -6 35 -8 9 -11 16 -5 16 6 0 11 12 11 26 0 17 -4
23 -13 18 -9 -6 -9 -4 -1 7 16 20 16 82 1 72 -7 -4 -6 0 2 10 10 13 11 24 3
46 -9 26 -8 29 6 23 16 -6 16 -4 0 20 -13 19 -15 29 -6 34 7 5 8 2 3 -7 -5 -8
-4 -11 1 -6 5 5 9 12 9 15 0 4 4 13 8 20 5 7 5 12 0 11 -27 -5 -34 2 -18 17
14 15 14 19 1 40 -12 17 -13 25 -4 30 7 5 8 2 3 -7 -5 -8 -4 -11 1 -6 5 5 9
12 9 15 0 4 4 14 9 22 7 12 6 13 -5 3 -17 -17 -26 -16 -26 2 0 8 4 12 9 9 4
-3 8 1 9 8 1 7 2 25 3 40 2 20 -1 25 -13 21 -13 -5 -14 -3 -3 8 16 17 16 43 0
33 -10 -6 -10 -4 -2 7 16 20 16 82 1 72 -7 -4 -6 0 2 10 10 13 11 24 3 46 -9
25 -8 29 4 24 10 -4 12 0 8 11 -3 9 -11 16 -17 16 -6 0 -2 7 9 15 10 8 15 15
10 15 -5 0 -3 6 3 13 8 10 7 14 -4 14 -8 0 -11 -5 -8 -10 3 -6 1 -7 -5 -3 -9
5 -8 13 3 30 13 19 13 25 0 43 -11 16 -12 24 -4 29 8 5 9 3 4 -7 -5 -8 -4 -11
1 -6 5 5 9 12 9 15 0 4 4 13 8 20 5 7 5 12 0 11 -19 -3 -23 2 -13 20 7 15 6
23 -6 35 -8 9 -12 16 -7 16 4 0 13 11 19 25 7 13 9 24 5 23 -18 -2 -21 4 -11
21 7 15 6 23 -5 35 -13 13 -13 15 3 19 14 4 14 5 -3 6 -18 2 -18 3 4 15 20 11
21 14 7 19 -11 5 -15 3 -10 -5 5 -7 3 -8 -5 -3 -9 5 -7 13 8 29 16 17 18 23 7
23 -8 0 -12 -5 -9 -10 3 -6 1 -7 -5 -3 -9 5 -8 14 4 31 11 18 12 25 3 31 -7 4
-9 3 -5 -4 3 -6 2 -13 -3 -16 -5 -4 -8 2 -7 11 2 9 8 19 14 21 7 2 12 8 12 13
0 4 -8 6 -17 3 -16 -5 -16 -4 -2 8 18 15 14 42 -4 31 -7 -3 -1 6 13 21 14 15
21 27 15 26 -21 -5 -25 1 -15 19 7 15 6 23 -5 34 -13 13 -13 16 1 21 8 3 13
10 10 15 -4 5 -1 11 6 13 7 3 5 7 -6 11 -11 5 -15 3 -10 -5 5 -7 3 -8 -5 -3
-9 5 -7 13 8 29 16 17 18 23 7 23 -8 0 -12 -5 -9 -10 3 -6 1 -7 -5 -3 -9 5 -8
14 4 31 11 18 12 25 3 31 -7 4 -9 3 -5 -4 3 -6 2 -13 -3 -16 -12 -8 -8 23 5
32 11 9 12 38 0 49 -5 4 -6 3 -2 -4 3 -6 2 -14 -3 -17 -5 -4 -8 1 -7 10 1 8 8
19 15 24 7 4 -27 8 -77 9 -61 1 -93 -2 -98 -10z m26 -369 c0 -5 -2 -10 -4 -10
-3 0 -8 5 -11 10 -3 6 -1 10 4 10 6 0 11 -4 11 -10z m0 -120 c0 -5 -2 -10 -4
-10 -3 0 -8 5 -11 10 -3 6 -1 10 4 10 6 0 11 -4 11 -10z m0 -120 c0 -5 -2 -10
-4 -10 -3 0 -8 5 -11 10 -3 6 -1 10 4 10 6 0 11 -4 11 -10z m145 -189 c3 -5 2
-12 -3 -15 -5 -3 -9 1 -9 9 0 17 3 19 12 6z m1235 -577 c0 -8 -19 -13 -24 -6
-3 5 1 9 9 9 8 0 15 -2 15 -3z m-534 -46 c4 -7 3 -8 -4 -4 -7 4 -12 2 -12 -5
0 -7 -3 -10 -6 -6 -6 5 3 27 11 27 2 0 7 -5 11 -12z m-701 -337 c3 -5 2 -12
-3 -15 -5 -3 -9 1 -9 9 0 17 3 19 12 6z m155 -21 c0 -5 -5 -10 -11 -10 -5 0
-7 5 -4 10 3 6 8 10 11 10 2 0 4 -4 4 -10z m10 -204 c0 -2 -8 -10 -17 -17 -16
-13 -17 -12 -4 4 13 16 21 21 21 13z m-310 -306 c0 -5 -2 -10 -4 -10 -3 0 -8
5 -11 10 -3 6 -1 10 4 10 6 0 11 -4 11 -10z m0 -120 c0 -5 -2 -10 -4 -10 -3 0
-8 5 -11 10 -3 6 -1 10 4 10 6 0 11 -4 11 -10z m0 -120 c0 -5 -2 -10 -4 -10
-3 0 -8 5 -11 10 -3 6 -1 10 4 10 6 0 11 -4 11 -10z m145 -189 c3 -5 2 -12 -3
-15 -5 -3 -9 1 -9 9 0 17 3 19 12 6z"/>
<path d="M2763 3033 c0 -9 4 -10 14 -2 7 6 13 12 13 14 0 1 -6 2 -13 2 -8 0
-14 -6 -14 -14z"/>
<path d="M2770 2740 c-9 -6 -10 -10 -3 -10 6 0 15 5 18 10 8 12 4 12 -15 0z"/>
<path d="M319 2688 c-5 -18 -6 -38 -1 -34 7 8 12 36 6 36 -2 0 -4 -1 -5 -2z"/>
<path d="M315 2561 c-3 -5 -2 -12 3 -15 5 -3 9 1 9 9 0 17 -3 19 -12 6z"/>
<path d="M2770 2420 c-9 -6 -10 -10 -3 -10 6 0 15 5 18 10 8 12 4 12 -15 0z"/>
<path d="M2770 2100 c-9 -6 -10 -10 -3 -10 6 0 15 5 18 10 8 12 4 12 -15 0z"/>
<path d="M2770 1780 c-9 -6 -10 -10 -3 -10 6 0 15 5 18 10 8 12 4 12 -15 0z"/>
<path d="M1350 1561 c0 -6 4 -13 10 -16 6 -3 7 1 4 9 -7 18 -14 21 -14 7z"/>
<path d="M1696 1562 c-3 -5 1 -9 9 -9 8 0 12 4 9 9 -3 4 -7 8 -9 8 -2 0 -6 -4
-9 -8z"/>
<path d="M2770 1460 c-9 -6 -10 -10 -3 -10 6 0 15 5 18 10 8 12 4 12 -15 0z"/>
<path d="M2770 1140 c-9 -6 -10 -10 -3 -10 6 0 15 5 18 10 8 12 4 12 -15 0z"/>
<path d="M2770 820 c-9 -6 -10 -10 -3 -10 6 0 15 5 18 10 8 12 4 12 -15 0z"/>
<path d="M319 768 c-5 -18 -6 -38 -1 -34 7 8 12 36 6 36 -2 0 -4 -1 -5 -2z"/>
<path d="M315 641 c-3 -5 -2 -12 3 -15 5 -3 9 1 9 9 0 17 -3 19 -12 6z"/>
</g>
</svg>
